<svg xmlns="http://www.w3.org/2000/svg" viewBox="0 0 542.35 444.87"><defs><style>.cls-1{fill:#004a73;}.cls-2{fill:#0968b0;}.cls-3{fill:#005177;}.cls-4{fill:#39bae2;}.cls-5{fill:#a61d44;}.cls-6{fill:#ed302f;}.cls-7{fill:#ed3d89;}.cls-8{fill:#4a8249;}.cls-9{fill:#62ba46;}.cls-10{fill:#ffc10e;}.cls-11{fill:none;stroke:#0968b0;stroke-miterlimit:10;stroke-width:0.76px;}</style></defs><g id="Layer_2" data-name="Layer 2"><g id="Layer_1-2" data-name="Layer 1"><path class="cls-1" d="M259.87,229.49a30.79,30.79,0,0,1,5.79-.51c3.17,0,5.22.56,6.76,1.79a5.16,5.16,0,0,1,2,4.33,5.82,5.82,0,0,1-4.14,5.39v.07a6.33,6.33,0,0,1,5.05,6.16,6.67,6.67,0,0,1-2.07,4.92c-1.71,1.56-4.48,2.29-8.49,2.29a36,36,0,0,1-4.92-.3Zm3.16,10h2.88c3.36,0,5.33-1.74,5.33-4.11,0-2.88-2.2-4-5.39-4a13.59,13.59,0,0,0-2.82.22Zm0,11.77a17,17,0,0,0,2.67.15c3.28,0,6.31-1.21,6.31-4.78,0-3.35-2.89-4.73-6.35-4.73H263Z"/><path class="cls-1" d="M289.24,253.71l-.24-2.22h-.12a6.53,6.53,0,0,1-5.39,2.62,5,5,0,0,1-5.39-5.06c0-4.27,3.79-6.59,10.6-6.56v-.36c0-1.46-.4-4.08-4-4.08a8.79,8.79,0,0,0-4.58,1.31l-.73-2.11a10.86,10.86,0,0,1,5.78-1.56c5.42,0,6.72,3.67,6.72,7.2v6.6a25.73,25.73,0,0,0,.28,4.22Zm-.46-9c-3.5-.08-7.48.54-7.48,4a2.85,2.85,0,0,0,3,3.06,4.41,4.41,0,0,0,4.27-2.95,3.78,3.78,0,0,0,.18-1Z"/><path class="cls-1" d="M297,240.86c0-1.83,0-3.31-.13-4.77h2.84l.18,2.91H300a6.47,6.47,0,0,1,5.83-3.31c2.43,0,6.22,1.46,6.22,7.5v10.52h-3.2V243.55c0-2.84-1.06-5.2-4.08-5.2a4.55,4.55,0,0,0-4.3,3.27,4.5,4.5,0,0,0-.22,1.49v10.6H297Z"/><path class="cls-1" d="M332.42,236.09c-.07,1.27-.15,2.69-.15,4.84v10.23c0,4.05-.79,6.52-2.51,8a9.39,9.39,0,0,1-6.42,2.12,11.46,11.46,0,0,1-5.86-1.46l.8-2.44a10,10,0,0,0,5.18,1.37c3.27,0,5.68-1.7,5.68-6.15v-2h-.07a6.31,6.31,0,0,1-5.61,2.94c-4.38,0-7.5-3.7-7.5-8.59,0-6,3.88-9.35,7.92-9.35a5.89,5.89,0,0,1,5.52,3.05h.07l.15-2.65Zm-3.32,7a4.69,4.69,0,0,0-.17-1.46,4.63,4.63,0,0,0-4.49-3.39c-3.07,0-5.25,2.59-5.25,6.66,0,3.46,1.76,6.33,5.22,6.33a4.66,4.66,0,0,0,4.43-3.27,5.34,5.34,0,0,0,.26-1.71Z"/><path class="cls-1" d="M337.57,227.85h3.2v25.86h-3.2Z"/><path class="cls-1" d="M355.92,253.71l-.24-2.22h-.11a6.59,6.59,0,0,1-5.39,2.62,5,5,0,0,1-5.41-5.06c0-4.27,3.79-6.59,10.62-6.56v-.36c0-1.46-.41-4.08-4-4.08a8.78,8.78,0,0,0-4.6,1.31l-.72-2.11a10.86,10.86,0,0,1,5.78-1.56c5.39,0,6.72,3.67,6.72,7.2v6.6a25.73,25.73,0,0,0,.28,4.22Zm-.47-9c-3.5-.08-7.46.54-7.46,4a2.83,2.83,0,0,0,3,3.06,4.37,4.37,0,0,0,4.26-2.95,2.92,2.92,0,0,0,.19-1Z"/><path class="cls-1" d="M378.93,227.85v21.31c0,1.56.05,3.35.16,4.55h-2.88l-.15-3.05H376a6.54,6.54,0,0,1-6,3.45c-4.26,0-7.55-3.6-7.55-9,0-5.86,3.62-9.46,7.91-9.46a6,6,0,0,1,5.34,2.69h.07V227.85Zm-3.19,15.41a6.21,6.21,0,0,0-.15-1.35A4.71,4.71,0,0,0,371,238.2c-3.33,0-5.3,2.91-5.3,6.81,0,3.57,1.75,6.52,5.22,6.52a4.83,4.83,0,0,0,4.71-3.83,6,6,0,0,0,.15-1.38Z"/><path class="cls-1" d="M386,245.49c.07,4.32,2.84,6.12,6.05,6.12a11.61,11.61,0,0,0,4.87-.92l.55,2.3a14.45,14.45,0,0,1-5.86,1.08c-5.43,0-8.69-3.56-8.69-8.89s3.15-9.49,8.28-9.49c5.77,0,7.29,5.06,7.29,8.3a14.56,14.56,0,0,1-.1,1.5Zm9.39-2.3c0-2.05-.83-5.21-4.43-5.21-3.25,0-4.67,3-4.94,5.21Z"/><path class="cls-1" d="M402,250.43a8.44,8.44,0,0,0,4.24,1.28c2.32,0,3.42-1.16,3.42-2.62s-.91-2.37-3.27-3.24c-3.17-1.13-4.67-2.88-4.67-5,0-2.85,2.3-5.17,6.08-5.17a8.86,8.86,0,0,1,4.34,1.09l-.81,2.33a6.79,6.79,0,0,0-3.59-1c-1.91,0-3,1.1-3,2.4,0,1.46,1.05,2.11,3.35,3,3.08,1.16,4.63,2.69,4.63,5.32,0,3.09-2.4,5.27-6.6,5.27a10.21,10.21,0,0,1-5-1.19Z"/><path class="cls-1" d="M416.87,227.85h3.21v11h.07a6.14,6.14,0,0,1,2.29-2.26,6.72,6.72,0,0,1,3.3-.9c2.36,0,6.15,1.46,6.15,7.53v10.49h-3.22V243.59c0-2.84-1-5.24-4.07-5.24a4.63,4.63,0,0,0-4.31,3.2,4.32,4.32,0,0,0-.21,1.53v10.63h-3.21Z"/><path class="cls-2" d="M269.53,405.08l-.26-2.22h-.1a6.6,6.6,0,0,1-5.41,2.62,5,5,0,0,1-5.39-5.06c0-4.26,3.79-6.59,10.61-6.55v-.37c0-1.46-.4-4.08-4-4.08a8.77,8.77,0,0,0-4.59,1.31l-.73-2.11a10.87,10.87,0,0,1,5.8-1.57c5.39,0,6.69,3.68,6.69,7.21v6.6a24.61,24.61,0,0,0,.3,4.22Zm-.49-9c-3.48-.08-7.46.55-7.46,4a2.83,2.83,0,0,0,3,3.05,4.41,4.41,0,0,0,4.27-2.95,3.6,3.6,0,0,0,.16-1Z"/><path class="cls-2" d="M289.86,404.42a11.65,11.65,0,0,1-5.05,1c-5.33,0-8.78-3.6-8.78-9s3.71-9.37,9.47-9.37A10.64,10.64,0,0,1,290,388l-.73,2.47a7.52,7.52,0,0,0-3.72-.83c-4,0-6.22,3-6.22,6.67,0,4.07,2.61,6.58,6.12,6.58a9.11,9.11,0,0,0,3.93-.87Z"/><path class="cls-2" d="M306.18,404.42a11.76,11.76,0,0,1-5.07,1c-5.31,0-8.77-3.6-8.77-9s3.71-9.37,9.46-9.37a10.6,10.6,0,0,1,4.45.92l-.73,2.47a7.49,7.49,0,0,0-3.72-.83c-4,0-6.23,3-6.23,6.67,0,4.07,2.62,6.58,6.13,6.58a9.21,9.21,0,0,0,3.95-.87Z"/><path class="cls-2" d="M311.7,396.85c.08,4.33,2.84,6.12,6.05,6.12a11.54,11.54,0,0,0,4.88-.92l.55,2.3a14.28,14.28,0,0,1-5.86,1.09c-5.44,0-8.69-3.56-8.69-8.88s3.15-9.51,8.28-9.51c5.76,0,7.29,5.07,7.29,8.3a11.78,11.78,0,0,1-.11,1.5Zm9.4-2.3c0-2-.84-5.2-4.43-5.2-3.25,0-4.67,3-4.94,5.2Z"/><path class="cls-2" d="M328.14,379.22h3.22v25.86h-3.22Z"/><path class="cls-2" d="M338.52,396.85c.07,4.33,2.84,6.12,6.06,6.12a11.52,11.52,0,0,0,4.87-.92l.55,2.3a14.34,14.34,0,0,1-5.87,1.09c-5.43,0-8.67-3.56-8.67-8.88s3.13-9.51,8.28-9.51c5.76,0,7.27,5.07,7.27,8.3a14.56,14.56,0,0,1-.1,1.5Zm9.4-2.3c0-2-.84-5.2-4.44-5.2-3.24,0-4.66,3-4.93,5.2Z"/><path class="cls-2" d="M355,393c0-2.08,0-3.86-.13-5.5h2.8l.11,3.46h.14a5.27,5.27,0,0,1,4.88-3.86,3.71,3.71,0,0,1,.92.1v3a5.06,5.06,0,0,0-1.09-.1c-2.27,0-3.87,1.71-4.32,4.11a9.36,9.36,0,0,0-.12,1.49v9.4H355Z"/><path class="cls-2" d="M375.94,405.08l-.25-2.22h-.12a6.55,6.55,0,0,1-5.38,2.62,5,5,0,0,1-5.4-5.06c0-4.26,3.79-6.59,10.6-6.55v-.37c0-1.46-.39-4.08-4-4.08a8.85,8.85,0,0,0-4.59,1.31l-.72-2.11a10.8,10.8,0,0,1,5.78-1.57c5.41,0,6.72,3.68,6.72,7.21v6.6a24.68,24.68,0,0,0,.29,4.22Zm-.47-9c-3.5-.08-7.47.55-7.47,4a2.83,2.83,0,0,0,3,3.05,4.4,4.4,0,0,0,4.26-2.95,3.64,3.64,0,0,0,.18-1Z"/><path class="cls-2" d="M387.59,382.39v5.06h4.58v2.44h-4.58v9.51c0,2.18.62,3.42,2.39,3.42a7,7,0,0,0,1.86-.22L392,405a8,8,0,0,1-2.84.43,4.41,4.41,0,0,1-3.46-1.35c-.91-.95-1.25-2.51-1.25-4.59v-9.61h-2.72v-2.44h2.72v-4.22Z"/><path class="cls-2" d="M411.73,396.12c0,6.51-4.53,9.36-8.8,9.36-4.77,0-8.44-3.5-8.44-9.07,0-5.91,3.86-9.36,8.75-9.36C408.31,387.05,411.73,390.73,411.73,396.12Zm-14,.19c0,3.85,2.22,6.76,5.36,6.76s5.36-2.87,5.36-6.84c0-3-1.49-6.77-5.29-6.77S397.73,393,397.73,396.31Z"/><path class="cls-2" d="M415.75,393c0-2.08-.05-3.86-.15-5.5h2.81l.11,3.46h.15a5.27,5.27,0,0,1,4.89-3.86,3.59,3.59,0,0,1,.9.1v3a5.09,5.09,0,0,0-1.1-.1c-2.25,0-3.86,1.71-4.29,4.11a9.07,9.07,0,0,0-.16,1.49v9.4h-3.16Z"/><path class="cls-2" d="M259.77,418.6H263v25.87h-3.19Z"/><path class="cls-2" d="M278.11,444.47l-.25-2.22h-.1a6.62,6.62,0,0,1-5.41,2.61A5,5,0,0,1,267,439.8c0-4.26,3.8-6.59,10.6-6.55v-.37c0-1.46-.39-4.07-4-4.07a8.78,8.78,0,0,0-4.61,1.31l-.72-2.13a11.14,11.14,0,0,1,5.8-1.54c5.4,0,6.7,3.67,6.7,7.2v6.59a25.78,25.78,0,0,0,.29,4.23Zm-.47-9c-3.5-.07-7.47.55-7.47,4a2.83,2.83,0,0,0,3,3.05,4.39,4.39,0,0,0,4.26-2.94,3.65,3.65,0,0,0,.18-1Z"/><path class="cls-2" d="M285.75,444.47c.06-1.21.14-3,.14-4.55V418.6h3.19v11.08h.05a6.59,6.59,0,0,1,6-3.23c4.39,0,7.48,3.63,7.46,9,0,6.31-4,9.43-7.93,9.43a6.25,6.25,0,0,1-5.89-3.31h-.12l-.14,2.92Zm3.33-7.07a6.36,6.36,0,0,0,.12,1.17,5,5,0,0,0,4.82,3.75c3.37,0,5.37-2.74,5.37-6.78,0-3.53-1.84-6.55-5.26-6.55a5.13,5.13,0,0,0-4.89,3.93,7.56,7.56,0,0,0-.16,1.31Z"/><rect class="cls-3" x="259.75" y="328.01" width="15.09" height="15.09"/><rect class="cls-2" x="282.85" y="328.01" width="15.09" height="15.09"/><rect class="cls-4" x="308.65" y="328.01" width="15.09" height="15.09"/><rect class="cls-5" x="335.98" y="325.83" width="15.08" height="15.09"/><rect class="cls-6" x="367.03" y="331.39" width="15.08" height="15.09"/><rect class="cls-7" x="402.73" y="320.29" width="15.11" height="15.09"/><rect class="cls-8" x="438.45" y="332.91" width="15.09" height="15.08"/><rect class="cls-9" x="477.33" y="316.83" width="15.08" height="15.09"/><rect class="cls-10" x="527.25" y="338.83" width="15.1" height="15.08"/><path class="cls-2" d="M.38,332.26h106.3V226.06H.38Zm79.29-47.34c0,21.77-11.48,30.62-26.86,30.62-14.52,0-25.48-8.21-25.48-30.31V243.46h9.29v42.08c0,15.78,7,22.54,16.53,22.54,10.41,0,17.26-6.95,17.26-22.54V243.46h9.26Z"/><path class="cls-11" d="M.38,332.26h106.3V226.06H.38Zm79.29-47.34c0,21.77-11.48,30.62-26.86,30.62-14.52,0-25.48-8.21-25.48-30.31V243.46h9.29v42.08c0,15.78,7,22.54,16.53,22.54,10.41,0,17.26-6.95,17.26-22.54V243.46h9.26Z"/><path class="cls-2" d="M113.21,332.26H219.5V226.05H113.21ZM193,314.63h-9.27l-22.53-36A207.89,207.89,0,0,1,148.05,255l-.32.1c.55,9,.64,17.47.64,29.25v30.31h-8.65V243.71h10.11l22.65,35.88a192.91,192.91,0,0,1,12.64,23l.32-.09c-.85-9.47-1.05-18.09-1.05-29V243.71H193Z"/><path class="cls-11" d="M113.21,332.26H219.5V226.05H113.21ZM193,314.63h-9.27l-22.53-36A207.89,207.89,0,0,1,148.05,255l-.32.1c.55,9,.64,17.47.64,29.25v30.31h-8.65V243.71h10.11l22.65,35.88a192.91,192.91,0,0,1,12.64,23l.32-.09c-.85-9.47-1.05-18.09-1.05-29V243.71H193Z"/><path class="cls-2" d="M113.21,444.49H219.5V338.27H113.21Zm71.85-53.4c-4.85,5.12-12.75,7.76-21.68,7.76a31.33,31.33,0,0,1-7.38-.62v28.4h-9.17v-70a94.53,94.53,0,0,1,17.58-1.48c9.07,0,15.7,2.1,19.91,5.89,3.89,3.36,6.32,8.52,6.32,14.84s-1.9,11.46-5.58,15.17"/><path class="cls-11" d="M113.21,444.49H219.5V338.27H113.21Zm71.85-53.4c-4.85,5.12-12.75,7.76-21.68,7.76a31.33,31.33,0,0,1-7.38-.62v28.4h-9.17v-70a94.53,94.53,0,0,1,17.58-1.48c9.07,0,15.7,2.1,19.91,5.89,3.89,3.36,6.32,8.52,6.32,14.84S188.74,387.38,185.06,391.09Z"/><path class="cls-2" d="M164.62,362.88a46.31,46.31,0,0,0-8.62.74v27.56a31,31,0,0,0,7.58.73c11.15,0,17.78-5.46,17.78-15s-6.63-14-16.74-14"/><path class="cls-11" d="M164.62,362.88a46.31,46.31,0,0,0-8.62.74v27.56a31,31,0,0,0,7.58.73c11.15,0,17.78-5.46,17.78-15S174.73,362.88,164.62,362.88Z"/><path class="cls-2" d="M.38,444.48H106.67V338.26H.38ZM75,416.86c-6.76,6.63-17.69,10.21-31.5,10.21a128.34,128.34,0,0,1-16.73-.84V356.46A132.8,132.8,0,0,1,46.37,355c13.17,0,22.52,2.95,28.75,8.74,6.41,5.8,10.11,14.11,10.11,25.57s-3.7,21-10.21,27.57"/><path class="cls-11" d="M.38,444.48H106.67V338.26H.38ZM75,416.86c-6.76,6.63-17.69,10.21-31.5,10.21a128.34,128.34,0,0,1-16.73-.84V356.46A132.8,132.8,0,0,1,46.37,355c13.17,0,22.52,2.95,28.75,8.74,6.41,5.8,10.11,14.11,10.11,25.57S81.53,410.34,75,416.86Z"/><path class="cls-2" d="M46.79,362.26a51.88,51.88,0,0,0-10.74.94v56.08a59.51,59.51,0,0,0,9.27.42c19.58.11,30.23-10.94,30.23-30.09.09-16.94-9.39-27.35-28.76-27.35"/><path class="cls-11" d="M46.79,362.26a51.88,51.88,0,0,0-10.74.94v56.08a59.51,59.51,0,0,0,9.27.42c19.58.11,30.23-10.94,30.23-30.09C75.64,372.67,66.16,362.26,46.79,362.26Z"/><path class="cls-2" d="M137.21,102.47l.91.9c.91.62.29,1.94,1.25,2.46,1.13.59,1.54,1.9,2.06,2.89a2.63,2.63,0,0,0,.24-.86c.42-1.59.36-3.4.85-5-1.75.08-3.77.27-5.31-.41"/><path class="cls-11" d="M137.21,102.47l.91.9c.91.62.29,1.94,1.25,2.46,1.13.59,1.54,1.9,2.06,2.89a2.63,2.63,0,0,0,.24-.86c.42-1.59.36-3.4.85-5C140.77,103,138.75,103.15,137.21,102.47Z"/><path class="cls-2" d="M118.62,117.13c.72-.74,2.2-.7,2.26-1.75-1-.15-1.54.4-2.26,1-.07.23-.41.64,0,.79"/><path class="cls-11" d="M118.62,117.13c.72-.74,2.2-.7,2.26-1.75-1-.15-1.54.4-2.26,1C118.55,116.57,118.21,117,118.62,117.13Z"/><path class="cls-2" d="M107.32,137.15a33.93,33.93,0,0,1-18.84-7.06c.19.7,1.11,1.14.86,2a2.51,2.51,0,0,1-2.35.8c-1.66-.28-2.89,1-4.46,1.15-1.43.44-1.93-1.31-3.26-1.15C87.4,140,96.69,144.42,107.55,145l.82.55-.33-1v-7.71Z"/><path class="cls-11" d="M107.32,137.15a33.93,33.93,0,0,1-18.84-7.06c.19.7,1.11,1.14.86,2a2.51,2.51,0,0,1-2.35.8c-1.66-.28-2.89,1-4.46,1.15-1.43.44-1.93-1.31-3.26-1.15C87.4,140,96.69,144.42,107.55,145l.82.55-.33-1v-7.71Z"/><path class="cls-2" d="M79.28,107.52c.08-.52-.7-.67-.62-1.19.57-1.08,0-2.83,1.47-3.31a3.35,3.35,0,0,1-2.81-.25l.44.69c0,1.94.82,3.77.42,5.72.31-.55.4-1.31,1.1-1.66"/><path class="cls-11" d="M79.28,107.52c.08-.52-.7-.67-.62-1.19.57-1.08,0-2.83,1.47-3.31a3.35,3.35,0,0,1-2.81-.25l.44.69c0,1.94.82,3.77.42,5.72C78.49,108.63,78.58,107.87,79.28,107.52Z"/><path class="cls-2" d="M82.32,103l-.24,1.56c-.35.89-1.5.23-2,.83s0,1.2.34,1.68c-.79,1.87,1.85,2.44,1.83,4.14.81,1-.12,2.57,1,3.51.27,1.89-.26,4.46,1.41,6l.3,1.82c.34,1.24-1.5.92-1.26,2,.34-.18.43.29.47.41v0a76.17,76.17,0,0,1,7.49-7.66l-1.1-1.11a29.11,29.11,0,0,1-4.51-10l-.83-.44a21.31,21.31,0,0,0-.42,2.6l-.29.36c-.63,0-1-.53-1.52-.86-.11-.32-.45-.84,0-1.11a1,1,0,0,1,.71.21c.25-.33.13-.79.29-1.2.09-.69-.52-1.35-.09-2,.56-.06,1,.6,1.2,1,.57.17,1-.29,1.47-.49,0-.5.69-1.18-.06-1.46a7.06,7.06,0,0,0-.06-3.45c-.33-1-1.4-.79-2.2-.71-2.36.77.37,2.55-.21,4-.32.84-1.18,0-1.8.4"/><path class="cls-11" d="M82.32,103l-.24,1.56c-.35.89-1.5.23-2,.83s0,1.2.34,1.68c-.79,1.87,1.85,2.44,1.83,4.14.81,1-.12,2.57,1,3.51.27,1.89-.26,4.46,1.41,6l.3,1.82c.34,1.24-1.5.92-1.26,2,.34-.18.43.29.47.41v0a76.17,76.17,0,0,1,7.49-7.66l-1.1-1.11a29.11,29.11,0,0,1-4.51-10l-.83-.44a21.31,21.31,0,0,0-.42,2.6l-.29.36c-.63,0-1-.53-1.52-.86-.11-.32-.45-.84,0-1.11a1,1,0,0,1,.71.21c.25-.33.13-.79.29-1.2.09-.69-.52-1.35-.09-2,.56-.06,1,.6,1.2,1,.57.17,1-.29,1.47-.49,0-.5.69-1.18-.06-1.46a7.06,7.06,0,0,0-.06-3.45c-.33-1-1.4-.79-2.2-.71-2.36.77.37,2.55-.21,4C83.8,103.46,82.94,102.67,82.32,103Z"/><path class="cls-2" d="M143.23,69c.61.15.79.88,1.2,1.31,2.13,1.14,2.68,3.42,4.56,4.7,1,2.19,3.47,3.89,3.55,6.4A45.8,45.8,0,0,1,157,99.52l-.23.35a1,1,0,0,0,.69-.27l8.42-.14c-.55-.81-.31-2-.46-3-1.1-13-6.66-24.11-15.38-33.92a65.69,65.69,0,0,1-5.8,6.26Z"/><path class="cls-11" d="M143.23,69c.61.15.79.88,1.2,1.31,2.13,1.14,2.68,3.42,4.56,4.7,1,2.19,3.47,3.89,3.55,6.4A45.8,45.8,0,0,1,157,99.52l-.23.35a1,1,0,0,0,.69-.27l8.42-.14c-.55-.81-.31-2-.46-3-1.1-13-6.66-24.11-15.38-33.92a65.69,65.69,0,0,1-5.8,6.26Z"/><path class="cls-2" d="M157.19,102.88l-.49-.35.28.79a46.87,46.87,0,0,1-9.26,25.92c-1.08,1.28-2.08,2.86-3.45,3.77a59.84,59.84,0,0,1,6.53,6.39L151,139c8.93-10.2,14-22,14.57-35.65l.35-.7-.44.21Z"/><path class="cls-11" d="M157.19,102.88l-.49-.35.28.79a46.87,46.87,0,0,1-9.26,25.92c-1.08,1.28-2.08,2.86-3.45,3.77a59.84,59.84,0,0,1,6.53,6.39L151,139c8.93-10.2,14-22,14.57-35.65l.35-.7-.44.21Z"/><path class="cls-2" d="M111.42,145.35c2.16-.72,4.67-.61,7-1a2.41,2.41,0,0,1-1.28-.76c-1.37-.09-2-1.51-2.46-2.59-.2-.79.32-1.44.65-2.11-.58-1.2-2.4-.32-3.45-.75-.3-.23-.49-.59-.91-.64l.45.64a61.77,61.77,0,0,1,0,7.2"/><path class="cls-11" d="M111.42,145.35c2.16-.72,4.67-.61,7-1a2.41,2.41,0,0,1-1.28-.76c-1.37-.09-2-1.51-2.46-2.59-.2-.79.32-1.44.65-2.11-.58-1.2-2.4-.32-3.45-.75-.3-.23-.49-.59-.91-.64l.45.64A61.77,61.77,0,0,1,111.42,145.35Z"/><path class="cls-2" d="M142.32,134.84c-.82,1.61-2.63,2.63-4,3.87-1.89,1.89-5,2.29-5.95,5-1,.93-1.38,2.39-2.8,2.92-.54,1.41-2,1.31-2.88,2.34-2.45,2.19-4-1.4-6.25-1.85L116,148c-1.53,0-3.08.55-4.55.07a70,70,0,0,1,0,9.16l.57-.36c14.08-.6,26.23-5.94,36.66-15.41l-6.17-5.87Z"/><path class="cls-11" d="M142.32,134.84c-.82,1.61-2.63,2.63-4,3.87-1.89,1.89-5,2.29-5.95,5-1,.93-1.38,2.39-2.8,2.92-.54,1.41-2,1.31-2.88,2.34-2.45,2.19-4-1.4-6.25-1.85L116,148c-1.53,0-3.08.55-4.55.07a70,70,0,0,1,0,9.16l.57-.36c14.08-.6,26.23-5.94,36.66-15.41l-6.17-5.87Z"/><path class="cls-2" d="M120.59,70.88a53,53,0,0,0-9.42-2l.3.64,0,7.92.75-.16a25.71,25.71,0,0,1,13.13,5.36l.19.6c1.33-1.83,3.3-3.42,4.86-5.17l1.46-.85L131.1,77a34.24,34.24,0,0,0-10.51-6.08"/><path class="cls-11" d="M120.59,70.88a53,53,0,0,0-9.42-2l.3.64,0,7.92.75-.16a25.71,25.71,0,0,1,13.13,5.36l.19.6c1.33-1.83,3.3-3.42,4.86-5.17l1.46-.85L131.1,77A34.24,34.24,0,0,0,120.59,70.88Z"/><path class="cls-2" d="M108,148.5l.28-.43-.9.23C96,147.51,86,143.49,77.61,135.46l-.07.35-6,6c9.1,7.89,19.4,13,31.14,14.56,1.88.32,4,.15,5.81.71l-.42-.71Z"/><path class="cls-11" d="M108,148.5l.28-.43-.9.23C96,147.51,86,143.49,77.61,135.46l-.07.35-6,6c9.1,7.89,19.4,13,31.14,14.56,1.88.32,4,.15,5.81.71l-.42-.71Z"/><path class="cls-2" d="M77.61,71.64l-3.15,4c-5.17,7.1-7.63,15.3-8.36,24.23l8-.14.76.29c-.33-.21-.24-.56-.36-.84a35.26,35.26,0,0,1,9.32-21.93,58.92,58.92,0,0,1-6.17-6.17Z"/><path class="cls-11" d="M77.61,71.64l-3.15,4c-5.17,7.1-7.63,15.3-8.36,24.23l8-.14.76.29c-.33-.21-.24-.56-.36-.84a35.26,35.26,0,0,1,9.32-21.93,58.92,58.92,0,0,1-6.17-6.17Z"/><path class="cls-2" d="M66.26,103.46l.63,5.38c.27,2.07,1.16,4,1.11,6.09.33-.44.12-1.31.91-1.39-.31-.65.61-1.2.09-1.76.27-1.4.43-2.82,1.67-3.85,1.48-.06,1.6-2,3.08-2.1.77,0,1.23,1,1.56,1.34-1-1.14-.88-3-.64-4.29l-.65.3a72.84,72.84,0,0,1-8.13-.2Z"/><path class="cls-11" d="M66.26,103.46l.63,5.38c.27,2.07,1.16,4,1.11,6.09.33-.44.12-1.31.91-1.39-.31-.65.61-1.2.09-1.76.27-1.4.43-2.82,1.67-3.85,1.48-.06,1.6-2,3.08-2.1.77,0,1.23,1,1.56,1.34-1-1.14-.88-3-.64-4.29l-.65.3a72.84,72.84,0,0,1-8.13-.2Z"/><path class="cls-2" d="M86,79.5a34.19,34.19,0,0,0-7.84,16.17c-.33,1.4-.15,3-.71,4.35a7.23,7.23,0,0,1,3.65-.15c-.67-.35-.12-1.19-.51-1.65-.08-.73-.18-1.65.51-2.12-.09-1.19,1.19-1.81,1.33-2.88.31-1.23,1.71-.41,2.38-1.06.44-.23,0-.64,0-1,.59-.79,1.5-.76,2.2-1.19A6.4,6.4,0,0,1,89,88c1.76.06,1.79-2.39,3.45-2.46a69.32,69.32,0,0,1-6.47-6"/><path class="cls-11" d="M86,79.5a34.19,34.19,0,0,0-7.84,16.17c-.33,1.4-.15,3-.71,4.35a7.23,7.23,0,0,1,3.65-.15c-.67-.35-.12-1.19-.51-1.65-.08-.73-.18-1.65.51-2.12-.09-1.19,1.19-1.81,1.33-2.88.31-1.23,1.71-.41,2.38-1.06.44-.23,0-.64,0-1,.59-.79,1.5-.76,2.2-1.19A6.4,6.4,0,0,1,89,88c1.76.06,1.79-2.39,3.45-2.46A69.32,69.32,0,0,1,86,79.5Z"/><path class="cls-2" d="M102.3,126.23a5.52,5.52,0,0,1,2.19-1.42c-2.59.52-4.89-1.35-7.1-2.37-1.25-.94-2.89-1.7-3.65-3.11a42.08,42.08,0,0,1-5.8,6c.89.06,1.4,1,2.15,1.49,4.38,3.65,9.84,5.4,14.94,6.66l-1.42-.65c-1-1.2-2.54-2.59-2.59-4.25,1-.37.92-1.53,1.28-2.32"/><path class="cls-11" d="M102.3,126.23a5.52,5.52,0,0,1,2.19-1.42c-2.59.52-4.89-1.35-7.1-2.37-1.25-.94-2.89-1.7-3.65-3.11a42.08,42.08,0,0,1-5.8,6c.89.06,1.4,1,2.15,1.49,4.38,3.65,9.84,5.4,14.94,6.66l-1.42-.65c-1-1.2-2.54-2.59-2.59-4.25C102.06,128.18,101.94,127,102.3,126.23Z"/><path class="cls-2" d="M134.26,138l.41-.54a39.06,39.06,0,0,0,5.2-4.35h.21c-.36-.13-.78.23-1.21.05a1.86,1.86,0,0,1-1-2l-3.59-3.71-.2-.56a5.21,5.21,0,0,1-1.32,1.68c0,.45-.15,1.15.41,1.48,1.17.37,2.7,1.14,2.94,2.51-.46,1.28-2.92,2.44-1.4,3.85.49.71-.68,1-.49,1.54"/><path class="cls-11" d="M134.26,138l.41-.54a39.06,39.06,0,0,0,5.2-4.35h.21c-.36-.13-.78.23-1.21.05a1.86,1.86,0,0,1-1-2l-3.59-3.71-.2-.56a5.21,5.21,0,0,1-1.32,1.68c0,.45-.15,1.15.41,1.48,1.17.37,2.7,1.14,2.94,2.51-.46,1.28-2.92,2.44-1.4,3.85C135.24,137.16,134.07,137.41,134.26,138Z"/><path class="cls-2" d="M137.48,84.4a34.14,34.14,0,0,0-3.93-5.2l-.14.35c-2.69,2.81-5.64,5.7-8.21,8.56A2,2,0,0,0,126,89c.11-.71.49-1.31.55-2,.69-1,1.77-.36,2.66-.15,1.41-.32,2.71.31,4.15.29,1.06.53,1.14,1.87,2.1,2.4.28.37.06.81-.29,1.1.29,2.19,1.36-.58,2.47-.06.45.18,1,.13,1.4.61.18.9,1.28.73,1.34,1.61-.09.43-.56.56-.86.79.27.87-.89,1.43-.48,2.36,1.68.33,1.74-1.64,2.53-2.51a16,16,0,0,0-1.63-4.4c-1-.21-1.55-1.34-2.51-1.56-1.87-.72.28-1.89.06-3"/><path class="cls-11" d="M137.48,84.4a34.14,34.14,0,0,0-3.93-5.2l-.14.35c-2.69,2.81-5.64,5.7-8.21,8.56A2,2,0,0,0,126,89c.11-.71.49-1.31.55-2,.69-1,1.77-.36,2.66-.15,1.41-.32,2.71.31,4.15.29,1.06.53,1.14,1.87,2.1,2.4.28.37.06.81-.29,1.1.29,2.19,1.36-.58,2.47-.06.45.18,1,.13,1.4.61.18.9,1.28.73,1.34,1.61-.09.43-.56.56-.86.79.27.87-.89,1.43-.48,2.36,1.68.33,1.74-1.64,2.53-2.51a16,16,0,0,0-1.63-4.4c-1-.21-1.55-1.34-2.51-1.56C135.55,86.68,137.7,85.51,137.48,84.4Z"/><path class="cls-2" d="M113.29,122.58c.75.15.22,1,.78,1.26,1.19-.38,2.1,1,3.07.15-.06-1.38,1.48-1.26,2.33-1.61,1.31-.78,2.82-1.84,2.67-3.59l-.2-.26c-.91,0-1.38.7-2.06,1.25s-1.23-.87-1.9-.55c0,.14.18.2.3.26a.65.65,0,0,1,0,.85c-1,.91-1.46-.43-2.4-.35v.35c0,.2-.06.52-.35.41-.58-1-1.78-.61-2.37-1.47a.85.85,0,0,0-1,.29c-.21.44-1.14,0-.92.71-.73.26-.81,1-1.34,1.51-.9-.14-1.3.89-2.16.86.09.17,0,.46.28.48a2.81,2.81,0,0,0,1.67.22c.9-1.4,2.35-.24,3.58-.77"/><path class="cls-11" d="M113.29,122.58c.75.15.22,1,.78,1.26,1.19-.38,2.1,1,3.07.15-.06-1.38,1.48-1.26,2.33-1.61,1.31-.78,2.82-1.84,2.67-3.59l-.2-.26c-.91,0-1.38.7-2.06,1.25s-1.23-.87-1.9-.55c0,.14.18.2.3.26a.65.65,0,0,1,0,.85c-1,.91-1.46-.43-2.4-.35v.35c0,.2-.06.52-.35.41-.58-1-1.78-.61-2.37-1.47a.85.85,0,0,0-1,.29c-.21.44-1.14,0-.92.71-.73.26-.81,1-1.34,1.51-.9-.14-1.3.89-2.16.86.09.17,0,.46.28.48a2.81,2.81,0,0,0,1.67.22C110.61,122,112.06,123.11,113.29,122.58Z"/><path class="cls-2" d="M144.49,110.24a38.2,38.2,0,0,1-5.12,11.15c-1,1.22-1.9,2.92-3.16,3.56l2.66,2.34c.16-.15.07-.39.09-.59,0-.36.18-.76.61-.7,1.29,0,1.32,1.34,2.06,2-.15,1.11.8,2,.5,3,7.35-7.77,11-17.28,11.71-27.82l.4-.46c-2.63.26-5.39.08-8.12.12l-.64-.22c.18,1.79-.31,3.51-.42,5.26l1,1a1.07,1.07,0,0,1-.21,1.34,1.13,1.13,0,0,1-1.34-.08"/><path class="cls-11" d="M144.49,110.24a38.2,38.2,0,0,1-5.12,11.15c-1,1.22-1.9,2.92-3.16,3.56l2.66,2.34c.16-.15.07-.39.09-.59,0-.36.18-.76.61-.7,1.29,0,1.32,1.34,2.06,2-.15,1.11.8,2,.5,3,7.35-7.77,11-17.28,11.71-27.82l.4-.46c-2.63.26-5.39.08-8.12.12l-.64-.22c.18,1.79-.31,3.51-.42,5.26l1,1a1.07,1.07,0,0,1-.21,1.34A1.13,1.13,0,0,1,144.49,110.24Z"/><path class="cls-2" d="M113.37,90.62c.67.38,1.06-.32,1.61-.47a3.62,3.62,0,0,1,2,1.32c.52.23,1-.09,1.47-.26.33-2.43,3.37-2.08,4.27-4.35l-.55.2c-.23-.33-.82-.18-.8-.71A6,6,0,0,1,123.1,85a29.53,29.53,0,0,0-8.32-3.8,28.84,28.84,0,0,1-3.52-.7c.56,1.67.07,4.12.41,6l2.1.71c.62-1,2-1.24,2.56-2.2.38-.31.81,0,1.1.36a5.93,5.93,0,0,1-.35,2.34c-.78,1.57-2.65,1.77-3.71,2.91"/><path class="cls-11" d="M113.37,90.62c.67.38,1.06-.32,1.61-.47a3.62,3.62,0,0,1,2,1.32c.52.23,1-.09,1.47-.26.33-2.43,3.37-2.08,4.27-4.35l-.55.2c-.23-.33-.82-.18-.8-.71A6,6,0,0,1,123.1,85a29.53,29.53,0,0,0-8.32-3.8,28.84,28.84,0,0,1-3.52-.7c.56,1.67.07,4.12.41,6l2.1.71c.62-1,2-1.24,2.56-2.2.38-.31.81,0,1.1.36a5.93,5.93,0,0,1-.35,2.34C116.3,89.28,114.43,89.48,113.37,90.62Z"/><path class="cls-2" d="M132.16,120.13c.12,1-1.06,1.41-.91,2.37a2.06,2.06,0,0,1-1.6.49,27.71,27.71,0,0,0-7.3-1.66.49.49,0,0,0-.35.55c1,.56,2.32.58,3.45,1.05,1,.27,1.66,1.49,2.91,1.12,1-.59,2.8.35,3.5-.77-.12-1.08.83-1.87,1.29-2.8l.35-.09c.58.62.56,1.52.82,2.2.83-.88,1.47-1.84,2.19-2.74a26.13,26.13,0,0,0,4.26-9,8.48,8.48,0,0,0-2.3.41c-.85-.06-1.87.43-2.6-.15-.26-.23-.45.13-.42.36-.29.43-.57,1-1.24.79s-.55-.79-.71-1.21a2.88,2.88,0,0,1-.15.9,9.2,9.2,0,0,0-1.25,2c-.62.66-1.61.43-2.26,1-.11,1.4-1.65,1.1-2.52,1.55-.07.17.13.2.22.35a1.14,1.14,0,0,0,1.25-.29c1.24.32,1-1.23,1.67-1.75.6-.1,1.21-.62,1.84-.21a4.11,4.11,0,0,1,.7,3c-.7.7-.35,1.84-.84,2.65"/><path class="cls-11" d="M132.16,120.13c.12,1-1.06,1.41-.91,2.37a2.06,2.06,0,0,1-1.6.49,27.71,27.71,0,0,0-7.3-1.66.49.49,0,0,0-.35.55c1,.56,2.32.58,3.45,1.05,1,.27,1.66,1.49,2.91,1.12,1-.59,2.8.35,3.5-.77-.12-1.08.83-1.87,1.29-2.8l.35-.09c.58.62.56,1.52.82,2.2.83-.88,1.47-1.84,2.19-2.74a26.13,26.13,0,0,0,4.26-9,8.48,8.48,0,0,0-2.3.41c-.85-.06-1.87.43-2.6-.15-.26-.23-.45.13-.42.36-.29.43-.57,1-1.24.79s-.55-.79-.71-1.21a2.88,2.88,0,0,1-.15.9,9.2,9.2,0,0,0-1.25,2c-.62.66-1.61.43-2.26,1-.11,1.4-1.65,1.1-2.52,1.55-.07.17.13.2.22.35a1.14,1.14,0,0,0,1.25-.29c1.24.32,1-1.23,1.67-1.75.6-.1,1.21-.62,1.84-.21a4.11,4.11,0,0,1,.7,3C132.3,118.18,132.65,119.32,132.16,120.13Z"/><path class="cls-2" d="M93.25,107.93c-.3-.15-.33-.12-.56.15-.15,0-.33,0-.44-.06,0-1.67-1.87-.67-2.57-1.55.83,1.52,1.25,3.23,2.1,4.76.51,1.34,1.69,2.39,2.23,3.7a21.43,21.43,0,0,1,2.45-2.85,1.58,1.58,0,0,0-.26-1.14c-.28-.62,0-1.49-.51-2-.75.26.27,1,0,1.46a.46.46,0,0,1-.7-.35,1.87,1.87,0,0,1-1.39-1.31c.54-.35-.16-.5-.3-.79"/><path class="cls-11" d="M93.25,107.93c-.3-.15-.33-.12-.56.15-.15,0-.33,0-.44-.06,0-1.67-1.87-.67-2.57-1.55.83,1.52,1.25,3.23,2.1,4.76.51,1.34,1.69,2.39,2.23,3.7a21.43,21.43,0,0,1,2.45-2.85,1.58,1.58,0,0,0-.26-1.14c-.28-.62,0-1.49-.51-2-.75.26.27,1,0,1.46a.46.46,0,0,1-.7-.35,1.87,1.87,0,0,1-1.39-1.31C94.09,108.37,93.39,108.22,93.25,107.93Z"/><path class="cls-2" d="M98.85,108.78a4.07,4.07,0,0,1-1.19,1.89l.1.06c.69-.5,1.17-1.4,2.09-1.46Z"/><path class="cls-11" d="M98.85,108.78a4.07,4.07,0,0,1-1.19,1.89l.1.06c.69-.5,1.17-1.4,2.09-1.46Z"/><path class="cls-2" d="M96.25,117a22.34,22.34,0,0,0,10.53,4.84c.2-.78-.12-1.77.28-2.45s1.1-.62,1.67-.5a.48.48,0,0,0,.34-.75c-.84-.18-.45-1.11-.75-1.63,0-.3.52-.24.41-.63-.57-.46.29-1-.2-1.48a4.44,4.44,0,0,0,.37-.38c-1.76.75-3.64-.33-5.2-1-.76-.44-1.86-.88-2-1.81-1.26,2-3.65,3.91-5.4,5.81"/><path class="cls-11" d="M96.25,117a22.34,22.34,0,0,0,10.53,4.84c.2-.78-.12-1.77.28-2.45s1.1-.62,1.67-.5a.48.48,0,0,0,.34-.75c-.84-.18-.45-1.11-.75-1.63,0-.3.52-.24.41-.63-.57-.46.29-1-.2-1.48a4.44,4.44,0,0,0,.37-.38c-1.76.75-3.64-.33-5.2-1-.76-.44-1.86-.88-2-1.81C100.39,113.27,98,115.14,96.25,117Z"/><path class="cls-2" d="M111.26,53.43a1.17,1.17,0,0,1,.27-.7c.41-.24.77.11.92.4s.22,1.11-.12,1.35c.34.06.51-.2.83-.2a43.53,43.53,0,0,1,18.45,5.6v-.14c1.13-.56,2.59-1.28,3.76-.29,1.4-.53,1.67,1.19,2.81,1.39,1.37.82,2.91,2.34,3.1,4,.24.52,1.07.9,1.19,1.45.94-2,2.8-3.38,4.42-5.1l1-.42a54.61,54.61,0,0,0-31-14.65c-1.88-.32-3.92-.15-5.7-.69a39.14,39.14,0,0,1,.08,8m26.3,3.91a1.74,1.74,0,0,1,1.31,1c-.15.67.61,1.23.16,1.75-1.59.42-1.73-1.37-3-1.81a1.25,1.25,0,0,1-.2-.84c.55-.67,1.08.43,1.69-.15M112.45,52c.26-.46.92-.29,1.28-.14l4.19-1.81c1.71.15,3.57.35,4.56,1.75V52c-1,.88-2.4,1.59-3.79,1-1.93.39-4.62,1.49-6.18-.5-.06-.14-.21-.35-.06-.5"/><path class="cls-11" d="M111.26,53.43a1.17,1.17,0,0,1,.27-.7c.41-.24.77.11.92.4s.22,1.11-.12,1.35c.34.06.51-.2.83-.2a43.53,43.53,0,0,1,18.45,5.6v-.14c1.13-.56,2.59-1.28,3.76-.29,1.4-.53,1.67,1.19,2.81,1.39,1.37.82,2.91,2.34,3.1,4,.24.52,1.07.9,1.19,1.45.94-2,2.8-3.38,4.42-5.1l1-.42a54.61,54.61,0,0,0-31-14.65c-1.88-.32-3.92-.15-5.7-.69A39.14,39.14,0,0,1,111.26,53.43Zm26.3,3.91a1.74,1.74,0,0,1,1.31,1c-.15.67.61,1.23.16,1.75-1.59.42-1.73-1.37-3-1.81a1.25,1.25,0,0,1-.2-.84C136.42,56.82,137,57.92,137.56,57.34ZM112.45,52c.26-.46.92-.29,1.28-.14l4.19-1.81c1.71.15,3.57.35,4.56,1.75V52c-1,.88-2.4,1.59-3.79,1-1.93.39-4.62,1.49-6.18-.5C112.45,52.38,112.3,52.17,112.45,52Z"/><path class="cls-2" d="M.38,219.39H219.51V.38H.38Zm188-104.95c-3.08,4.35-6.78,8.41-9.62,12.85.32-3.51.74-7.82-.64-11.15-2.37-7.16-4.45-14.43-5.11-22.28l.08-3c1.79,8,9.67,13.55,9.17,22.54.19,2.18-.51,4-.9,5.94l.15.16.34-.41c1.19-4.4,1.76-9,3.58-13.16C188,100,191.26,94,189.94,86.85c3.94,8.45,2.75,19.7-1.54,27.59M183.54,69c5.16,7,6.31,18.16,2.54,26.2a47.34,47.34,0,0,0-3,10.8c-.25-.64-.3-1.52-.55-2.26-2-7.85-9.49-13.45-12.55-20.86a39.26,39.26,0,0,1-2.25-7.56c3.28,6,11.33,9.16,13.52,15.81.91,1.7.86,3.8,1.4,5.62a.24.24,0,0,0,.25-.22,75.92,75.92,0,0,1,.25-20.81c-.07-3.68-.41-7.24-2.45-10.07,1.31.77,1.9,2.22,2.8,3.35m-3.64-1.33c1.37,6.12-.63,12.11.63,18.29l-.05.07c-3.34-6.58-10.44-9.67-15.32-14.93-2.83-3.12-4-6.91-4.76-10.94,2.81,6.75,10.35,8.23,14.67,13.9,1.47,1.31,1.92,3.12,2.86,4.61l.15-.15c-2.48-5.31-3.32-11.29-5.05-17a13.4,13.4,0,0,0-4.9-6.42c5.65,1.17,10.6,7.09,11.77,12.53M164.69,53.57c4.31,3.83,6.23,8.8,7.49,13.93l.7,1.64a61.44,61.44,0,0,1-15.83-16.82l-4.86-4.91c4.26,1.82,8.85,2.89,12.5,6.16M83.43,48.81A61.8,61.8,0,0,1,110,42.51a58.76,58.76,0,0,1,52.64,33.34,57.82,57.82,0,0,1,3.84,41c-4,15.62-17.14,31.41-32.43,37.83-17.25,8.45-41.74,6.34-57.1-4.67-21.36-14.62-30.08-39.81-23.63-64.68C57.25,70.6,69,55.67,83.43,48.81m-16.88-.58c-4.3,3.76-7.28,8.53-10.46,13-2.87,3.53-6.52,5.86-9.76,8.89,1.75-3.61,1.81-7.93,4.29-11.26,3.53-6.16,10.08-8.32,15.93-10.6M43.05,61.35a14.37,14.37,0,0,1,7.72-5.16c-5.78,4-5.41,11.07-7.24,17-.59,2.19-1.61,4.2-2.11,6.46l.15.11a19.82,19.82,0,0,1,4.76-7C50.44,69,56.53,66.59,58.53,61c-.08,7.81-6.59,13.94-12.81,18.31A26.06,26.06,0,0,0,39.25,87c-.14-2,.29-3.94.16-6-.67-6.8-1.18-14.57,3.64-19.61M31.35,84.61c-.18-6.9,2.68-12.53,6.71-17.67.12,0,.2-.17.36-.14-4.45,6.75-.76,15.24-1,22.92l-.59,7.85c.08.06.08.29.3.2.26-.87.31-1.81.5-2.72C38.71,88.72,44.2,84.23,49,79.85a12.36,12.36,0,0,0,2.44-3.65,31.56,31.56,0,0,1-2.69,9.25c-3.72,7.31-10.65,13.28-11.91,21.63-.62-8-6.08-14-5.51-22.47M28,94.41a29.73,29.73,0,0,1,1.81-6.36c-1.79,9.11,4.36,15.67,6.36,23.59.84,2.94,1.05,6.13,2.26,8.9.1.06.2-.06.28-.15-3-8.4,1.32-16.2,5.66-22.76a21.39,21.39,0,0,0,2.2-5.82c.46,3.8-.5,8.18-1,12.12-1.07,5-2.64,9.78-4,14.66a23,23,0,0,0-.21,9.65l-.43-.35C37.67,122,31.36,117.45,29.49,111c-1.54-5.1-2.55-11-1.5-16.61m-.29,17.82C28.4,121.88,38.8,127,43.61,135a26.69,26.69,0,0,0,3.65,4.82c-.24-1-1.2-1.89-1.54-2.95a20.69,20.69,0,0,1-1.91-11.4c.49-4.94,2.55-9.54,1.75-14.72,4.25,9.13,3,20.52,5.34,30.41.59,2.16,1.85,4.09,2.67,6.15-8.7-5.91-20.56-11.54-24.42-22.41-1.64-3.73-1.81-8.38-1.45-12.66m5.19,22.18c4.86,11,17,11.89,25.15,18.56a20.37,20.37,0,0,0,4.76,3.24l.09-.08a28.65,28.65,0,0,1-5.35-5.81c-4.75-6.63-3.09-15.91-6.64-23A54.74,54.74,0,0,1,59,139.6c2.92,7.18,4,15.3,10.78,20.74-7.3-2.4-15.86-1.74-22.29-6.24-7-4.3-13.32-11.63-14.63-19.69m12.47,20.46c7.77,8.84,20.49,5.9,30.85,8.2,1.46.21,2.81.79,4.36.56-1.23-.79-3-.7-4.3-1.4-8.13-2.86-9.32-11.65-13.73-17.57,5.63,3.73,10.37,8.78,15.57,13.66,3.73,3.27,8.24,4.78,13,5.75-1.15.41-2.63.29-3.87.61-8.5,2.1-18,5.52-27,2.46a26.21,26.21,0,0,1-14.87-12.27m105.58,20.6c-8.77,3.28-17.9-.13-24.74-5.33-2.78-1.75-5.23-4.29-8.82-4.06a12.38,12.38,0,0,0-3.66.35,67.55,67.55,0,0,1,18.49,12.82,27.09,27.09,0,0,1-3.35,3c-5.44-5.88-11.48-11.51-18.24-14.8a11.79,11.79,0,0,0-3.76,1.6,56,56,0,0,0-15,13.39l-3.5-2.89a64.42,64.42,0,0,1,18.57-13.22c-6.65-2.09-11,3.48-16.07,6.31-5.89,4.12-14.36,6-21.49,3.21A23.42,23.42,0,0,1,59,168.83c5.61,3.85,14,4.26,20.34,1.75,8.57-3.72,17.44-8.4,27.75-6.16,1.61,0,3.19,1.63,4.7.26a33,33,0,0,1,22.94,2.89l6.79,2.72c6.33,2.34,14.49,1.69,19.91-2.17a23.4,23.4,0,0,1-10.52,7.35m9.41-9c-9.85,3.72-19.75-.84-29.19-2.36l-1.8-.24v-.06c4.49-1,8.87-2.36,12.47-5.6,5.28-5.08,10-10.3,15.86-14.31-4.36,5.58-4.82,13.52-12,17.11-1.78,1.17-4,1.37-5.86,2.25,2.62.06,5-.88,7.62-1.13,9.64-1.53,20.69,0,27.43-8.18-2.51,5.71-8.79,10.51-14.52,12.52m5.45-10c-5,1.34-10.39,1.77-15.27,3.45,8.27-7.09,7.8-18.08,13.32-26.43,1.76-2.36,3.22-4.83,5.25-7.09-3.35,6.75-1.89,15.47-5.74,22a28.78,28.78,0,0,1-6,7.15c.76,0,1.44-.69,2.1-1.13,6.29-6.26,14.48-8,21.25-13.09a20.38,20.38,0,0,0,6.4-8.06c-1.29,10.37-11.61,20.09-21.34,23.19m12.43-17.67c-3.89,2.54-7.84,4.9-11.57,7.8v-.35c5.73-9.52,2.92-22.56,6.45-33l1.32-3.5c-.73,6.51,2.11,12,1.9,18.56a21,21,0,0,1-3.57,10.61h.35c2.81-3.68,5-7.59,8.27-11.11,5.08-4.89,10.26-9.91,10.93-16.72,1.72,11.36-4.65,21.31-14.08,27.73"/><path class="cls-11" d="M.38,219.39H219.51V.38H.38Zm188-104.95c-3.08,4.35-6.78,8.41-9.62,12.85.32-3.51.74-7.82-.64-11.15-2.37-7.16-4.45-14.43-5.11-22.28l.08-3c1.79,8,9.67,13.55,9.17,22.54.19,2.18-.51,4-.9,5.94l.15.16.34-.41c1.19-4.4,1.76-9,3.58-13.16C188,100,191.26,94,189.94,86.85,193.88,95.3,192.69,106.55,188.4,114.44ZM183.54,69c5.16,7,6.31,18.16,2.54,26.2a47.34,47.34,0,0,0-3,10.8c-.25-.64-.3-1.52-.55-2.26-2-7.85-9.49-13.45-12.55-20.86a39.26,39.26,0,0,1-2.25-7.56c3.28,6,11.33,9.16,13.52,15.81.91,1.7.86,3.8,1.4,5.62a.24.24,0,0,0,.25-.22,75.92,75.92,0,0,1,.25-20.81c-.07-3.68-.41-7.24-2.45-10.07C182.05,66.4,182.64,67.85,183.54,69Zm-3.64-1.33c1.37,6.12-.63,12.11.63,18.29l-.05.07c-3.34-6.58-10.44-9.67-15.32-14.93-2.83-3.12-4-6.91-4.76-10.94,2.81,6.75,10.35,8.23,14.67,13.9,1.47,1.31,1.92,3.12,2.86,4.61l.15-.15c-2.48-5.31-3.32-11.29-5.05-17a13.4,13.4,0,0,0-4.9-6.42C173.78,56.29,178.73,62.21,179.9,67.65ZM164.69,53.57c4.31,3.83,6.23,8.8,7.49,13.93l.7,1.64a61.44,61.44,0,0,1-15.83-16.82l-4.86-4.91C156.45,49.23,161,50.3,164.69,53.57ZM83.43,48.81A61.8,61.8,0,0,1,110,42.51a58.76,58.76,0,0,1,52.64,33.34,57.82,57.82,0,0,1,3.84,41c-4,15.62-17.14,31.41-32.43,37.83-17.25,8.45-41.74,6.34-57.1-4.67-21.36-14.62-30.08-39.81-23.63-64.68C57.25,70.6,69,55.67,83.43,48.81Zm-16.88-.58c-4.3,3.76-7.28,8.53-10.46,13-2.87,3.53-6.52,5.86-9.76,8.89,1.75-3.61,1.81-7.93,4.29-11.26C54.15,52.67,60.7,50.51,66.55,48.23ZM43.05,61.35a14.37,14.37,0,0,1,7.72-5.16c-5.78,4-5.41,11.07-7.24,17-.59,2.19-1.61,4.2-2.11,6.46l.15.11a19.82,19.82,0,0,1,4.76-7C50.44,69,56.53,66.59,58.53,61c-.08,7.81-6.59,13.94-12.81,18.31A26.06,26.06,0,0,0,39.25,87c-.14-2,.29-3.94.16-6C38.74,74.16,38.23,66.39,43.05,61.35ZM31.35,84.61c-.18-6.9,2.68-12.53,6.71-17.67.12,0,.2-.17.36-.14-4.45,6.75-.76,15.24-1,22.92l-.59,7.85c.08.06.08.29.3.2.26-.87.31-1.81.5-2.72C38.71,88.72,44.2,84.23,49,79.85a12.36,12.36,0,0,0,2.44-3.65,31.56,31.56,0,0,1-2.69,9.25c-3.72,7.31-10.65,13.28-11.91,21.63C36.24,99.09,30.78,93.1,31.35,84.61ZM28,94.41a29.73,29.73,0,0,1,1.81-6.36c-1.79,9.11,4.36,15.67,6.36,23.59.84,2.94,1.05,6.13,2.26,8.9.1.06.2-.06.28-.15-3-8.4,1.32-16.2,5.66-22.76a21.39,21.39,0,0,0,2.2-5.82c.46,3.8-.5,8.18-1,12.12-1.07,5-2.64,9.78-4,14.66a23,23,0,0,0-.21,9.65l-.43-.35C37.67,122,31.36,117.45,29.49,111,28,105.92,26.94,100,28,94.41Zm-.29,17.82C28.4,121.88,38.8,127,43.61,135a26.69,26.69,0,0,0,3.65,4.82c-.24-1-1.2-1.89-1.54-2.95a20.69,20.69,0,0,1-1.91-11.4c.49-4.94,2.55-9.54,1.75-14.72,4.25,9.13,3,20.52,5.34,30.41.59,2.16,1.85,4.09,2.67,6.15-8.7-5.91-20.56-11.54-24.42-22.41C27.51,121.16,27.34,116.51,27.7,112.23Zm5.19,22.18c4.86,11,17,11.89,25.15,18.56a20.37,20.37,0,0,0,4.76,3.24l.09-.08a28.65,28.65,0,0,1-5.35-5.81c-4.75-6.63-3.09-15.91-6.64-23A54.74,54.74,0,0,1,59,139.6c2.92,7.18,4,15.3,10.78,20.74-7.3-2.4-15.86-1.74-22.29-6.24C40.48,149.8,34.2,142.47,32.89,134.41Zm12.47,20.46c7.77,8.84,20.49,5.9,30.85,8.2,1.46.21,2.81.79,4.36.56-1.23-.79-3-.7-4.3-1.4-8.13-2.86-9.32-11.65-13.73-17.57,5.63,3.73,10.37,8.78,15.57,13.66,3.73,3.27,8.24,4.78,13,5.75-1.15.41-2.63.29-3.87.61-8.5,2.1-18,5.52-27,2.46A26.21,26.21,0,0,1,45.36,154.87Zm105.58,20.6c-8.77,3.28-17.9-.13-24.74-5.33-2.78-1.75-5.23-4.29-8.82-4.06a12.38,12.38,0,0,0-3.66.35,67.55,67.55,0,0,1,18.49,12.82,27.09,27.09,0,0,1-3.35,3c-5.44-5.88-11.48-11.51-18.24-14.8a11.79,11.79,0,0,0-3.76,1.6,56,56,0,0,0-15,13.39l-3.5-2.89a64.42,64.42,0,0,1,18.57-13.22c-6.65-2.09-11,3.48-16.07,6.31-5.89,4.12-14.36,6-21.49,3.21A23.42,23.42,0,0,1,59,168.83c5.61,3.85,14,4.26,20.34,1.75,8.57-3.72,17.44-8.4,27.75-6.16,1.61,0,3.19,1.63,4.7.26a33,33,0,0,1,22.94,2.89l6.79,2.72c6.33,2.34,14.49,1.69,19.91-2.17A23.4,23.4,0,0,1,150.94,175.47Zm9.41-9c-9.85,3.72-19.75-.84-29.19-2.36l-1.8-.24v-.06c4.49-1,8.87-2.36,12.47-5.6,5.28-5.08,10-10.3,15.86-14.31-4.36,5.58-4.82,13.52-12,17.11-1.78,1.17-4,1.37-5.86,2.25,2.62.06,5-.88,7.62-1.13,9.64-1.53,20.69,0,27.43-8.18C172.36,159.62,166.08,164.42,160.35,166.43Zm5.45-10c-5,1.34-10.39,1.77-15.27,3.45,8.27-7.09,7.8-18.08,13.32-26.43,1.76-2.36,3.22-4.83,5.25-7.09-3.35,6.75-1.89,15.47-5.74,22a28.78,28.78,0,0,1-6,7.15c.76,0,1.44-.69,2.1-1.13,6.29-6.26,14.48-8,21.25-13.09a20.38,20.38,0,0,0,6.4-8.06C185.85,143.6,175.53,153.32,165.8,156.42Zm12.43-17.67c-3.89,2.54-7.84,4.9-11.57,7.8v-.35c5.73-9.52,2.92-22.56,6.45-33l1.32-3.5c-.73,6.51,2.11,12,1.9,18.56a21,21,0,0,1-3.57,10.61h.35c2.81-3.68,5-7.59,8.27-11.11,5.08-4.89,10.26-9.91,10.93-16.72C194,122.38,187.66,132.33,178.23,138.75Z"/><path class="cls-2" d="M75.77,133.35a17.6,17.6,0,0,1-2.71-2.8,4,4,0,0,1-2.46-1.86c-.29-.33,0-.91-.35-1.15l-.34.44c-1,.5-1.4-.55-2.1-1-.92-.49-.48-2.21-1.71-1.89-.45,0-.61-.56-.91-.85-1.13.11-1.4-1.15-2-1.75-.11.27,0,.6-.36.78-1.17.27-1.57-1.16-2.36-1.75-.2.09-.35.32-.65.26a3.31,3.31,0,0,1-1.19-2.46c-1-1.07-.52-2.78-.36-4.11.17-.34.67-.54.59-1,.25-.61.91-.68,1.51-.71a1.69,1.69,0,0,1,.6.55c.36-.22,1.23,0,.89-.8a4,4,0,0,1,1.93-.71,11.82,11.82,0,0,0,1.29,1.81l-.41-.64a45,45,0,0,1-1.39-8.87c0-.18-.39-.26-.17-.44l.08.08a7.35,7.35,0,0,1,.09-1.63l-.8.3-8.12-.07a59.38,59.38,0,0,0,7.16,25.64c2.07,3.84,5.11,7.32,7.78,10.92l5.8-6Z"/><path class="cls-11" d="M75.77,133.35a17.6,17.6,0,0,1-2.71-2.8,4,4,0,0,1-2.46-1.86c-.29-.33,0-.91-.35-1.15l-.34.44c-1,.5-1.4-.55-2.1-1-.92-.49-.48-2.21-1.71-1.89-.45,0-.61-.56-.91-.85-1.13.11-1.4-1.15-2-1.75-.11.27,0,.6-.36.78-1.17.27-1.57-1.16-2.36-1.75-.2.09-.35.32-.65.26a3.31,3.31,0,0,1-1.19-2.46c-1-1.07-.52-2.78-.36-4.11.17-.34.67-.54.59-1,.25-.61.91-.68,1.51-.71a1.69,1.69,0,0,1,.6.55c.36-.22,1.23,0,.89-.8a4,4,0,0,1,1.93-.71,11.82,11.82,0,0,0,1.29,1.81l-.41-.64a45,45,0,0,1-1.39-8.87c0-.18-.39-.26-.17-.44l.08.08a7.35,7.35,0,0,1,.09-1.63l-.8.3-8.12-.07a59.38,59.38,0,0,0,7.16,25.64c2.07,3.84,5.11,7.32,7.78,10.92l5.8-6Z"/><path class="cls-2" d="M85.13,65.19c-1.82,1.26-3.49,2.89-5.36,4,2.17,1.37,4,3.65,5.9,5.46l.22.57a34.83,34.83,0,0,1,17.53-8.89c1.53-.15,3.08-.67,4.62-.35a57.63,57.63,0,0,1-.09-8.41,44.93,44.93,0,0,0-22.82,7.62"/><path class="cls-11" d="M85.13,65.19c-1.82,1.26-3.49,2.89-5.36,4,2.17,1.37,4,3.65,5.9,5.46l.22.57a34.83,34.83,0,0,1,17.53-8.89c1.53-.15,3.08-.67,4.62-.35a57.63,57.63,0,0,1-.09-8.41A44.93,44.93,0,0,0,85.13,65.19Z"/><path class="cls-2" d="M108.32,93.77c-.88,1.47-2.34,1.79-3.7,2.2-.4.46-.3,1.47-1.2,1.39-.31.64-1.3,1-.91,2-.48,1-.24,2.29-.51,3.37-1.72,1.07-1.22-1.44-2.11-2l-.27.49a.8.8,0,0,1-.81-.34c-.29-.09-.71-.18-.94,0-.39.65-1,1.18-.82,2-.19.54-1.06.36-.94.92a17.45,17.45,0,0,0,3-.41c.68.18,1.22-.32,1.89-.36a.63.63,0,0,1,.41.7h.25a1.18,1.18,0,0,0,.45-1.4c.06-.6.74-.6,1.14-.79.39.19.15.56.22.85,1.31.49-.32,1.47-.5,2.16-.35.55,0,1.81-1.1,1.64a.41.41,0,0,1-.3-.51h-.16a1.52,1.52,0,0,0,.8,1.32c.81-.67.83-1.8,2-2,.61-.64-.26-1.63.65-2.17,1.52,0,3.14-.67,4.35.57-.09.52-.29.75.14,1.19a5.65,5.65,0,0,1-1,2,1,1,0,0,1-.3,1.11c-.41,1.77-2.45.93-3.64,1.54a9.26,9.26,0,0,0,6.45,1.76c1.26-.06.7-1.61,1.34-2.31.4-2,2.28-.64,3.43-1.2a8.38,8.38,0,0,0,1-2.72,1.92,1.92,0,0,1-.78-2.18c-.5-.68-.45-1.9-1.53-2-.18-.23,0-.53.12-.7,0-.65.62-.84.78-1.35-.66-.43-.49-1.39-.44-1.94-1.13.31-1.26-1.18-2.1-1.49-.2-.68-.93-.8-1.52-.91-1.4.68-1.64-1-2.69-1.46-.11-.32-.33-.79,0-1,.53-.44,1.23-.06,1.85-.09l-.51-.26c-.46-.54-1.49-.2-2.09,0,.58.58.34,1.62.7,2.36"/><path class="cls-11" d="M108.32,93.77c-.88,1.47-2.34,1.79-3.7,2.2-.4.46-.3,1.47-1.2,1.39-.31.64-1.3,1-.91,2-.48,1-.24,2.29-.51,3.37-1.72,1.07-1.22-1.44-2.11-2l-.27.49a.8.8,0,0,1-.81-.34c-.29-.09-.71-.18-.94,0-.39.65-1,1.18-.82,2-.19.54-1.06.36-.94.92a17.45,17.45,0,0,0,3-.41c.68.18,1.22-.32,1.89-.36a.63.63,0,0,1,.41.7h.25a1.18,1.18,0,0,0,.45-1.4c.06-.6.74-.6,1.14-.79.39.19.15.56.22.85,1.31.49-.32,1.47-.5,2.16-.35.55,0,1.81-1.1,1.64a.41.41,0,0,1-.3-.51h-.16a1.52,1.52,0,0,0,.8,1.32c.81-.67.83-1.8,2-2,.61-.64-.26-1.63.65-2.17,1.52,0,3.14-.67,4.35.57-.09.52-.29.75.14,1.19a5.65,5.65,0,0,1-1,2,1,1,0,0,1-.3,1.11c-.41,1.77-2.45.93-3.64,1.54a9.26,9.26,0,0,0,6.45,1.76c1.26-.06.7-1.61,1.34-2.31.4-2,2.28-.64,3.43-1.2a8.38,8.38,0,0,0,1-2.72,1.92,1.92,0,0,1-.78-2.18c-.5-.68-.45-1.9-1.53-2-.18-.23,0-.53.12-.7,0-.65.62-.84.78-1.35-.66-.43-.49-1.39-.44-1.94-1.13.31-1.26-1.18-2.1-1.49-.2-.68-.93-.8-1.52-.91-1.4.68-1.64-1-2.69-1.46-.11-.32-.33-.79,0-1,.53-.44,1.23-.06,1.85-.09l-.51-.26c-.46-.54-1.49-.2-2.09,0C108.2,92,108,93,108.32,93.77Z"/><path class="cls-2" d="M111.26,66c1.11-.38,2.25.09,3.37.12a34.44,34.44,0,0,1,15.72,6.3A4.14,4.14,0,0,1,129,70.3a.34.34,0,0,1,.37-.11c0-.9-.91-1.37-1.05-2.19a.61.61,0,0,1,.63-.28,20.15,20.15,0,0,1,2.58,3c.64-.26,1.16.14,1.63.49.85.51.32,1.58,1,2.17.12,1.72,2.22,2.68,2.09,4.4,0,.41.54.09.71.29l1.76,2.17a.86.86,0,0,0,.27,1.19c.8.35,1.23-.64,2-.49,1.15.64-.18,1.4-.07,2.09.46,0,1-.34,1.34.1.16.64-.51,1-.77,1.46,0,.64.53.49,1,.64a.82.82,0,0,1,.72,1.06c1.46,1.51-.44,3.15.25,4.74a2.79,2.79,0,0,1-.76,2.88c0,1.27-1.14,2.06-1.6,3.14l-1.5.29c-.78.8.68,1.76-.12,2.24l3.29.06-.36-.35a4.84,4.84,0,0,1,.44-4.13c.5-1.06.61-2.31,1.55-3.21.2-.07.58-.45.76,0a6.26,6.26,0,0,1-.49,3c.93,1.34.82,3.09.91,4.76,2.88-.18,5.71-.24,8.54-.21l-.25-.54A41.56,41.56,0,0,0,150,83.85c-.6,0-1,.53-1.74.34a.56.56,0,0,1-.35-.58c-1.17-1.1-1.9-2.56-3.21-3.56-1.49.14-2.17-1.58-3.5-1.75-1.2-.5-.39-2.42-2.12-1.9a2.84,2.84,0,0,1-1.83-2,4.81,4.81,0,0,0-1.66-4.15c-1.06-.38-1.49,1-2.55.78-.58-.28-.32-1-.5-1.54s-.7-.75-.61-1.34c1.37-1.81-1.66-1.78-1-3.56-.18-1.29-1.49-1.79-2.17-2.8a47.27,47.27,0,0,0-14.16-4.07c-1.26-.16-2.43.1-3.51-.49l.3.55c0,2.73.12,5.61-.16,8.15"/><path class="cls-11" d="M111.26,66c1.11-.38,2.25.09,3.37.12a34.44,34.44,0,0,1,15.72,6.3A4.14,4.14,0,0,1,129,70.3a.34.34,0,0,1,.37-.11c0-.9-.91-1.37-1.05-2.19a.61.61,0,0,1,.63-.28,20.15,20.15,0,0,1,2.58,3c.64-.26,1.16.14,1.63.49.85.51.32,1.58,1,2.17.12,1.72,2.22,2.68,2.09,4.4,0,.41.54.09.71.29l1.76,2.17a.86.86,0,0,0,.27,1.19c.8.35,1.23-.64,2-.49,1.15.64-.18,1.4-.07,2.09.46,0,1-.34,1.34.1.16.64-.51,1-.77,1.46,0,.64.53.49,1,.64a.82.82,0,0,1,.72,1.06c1.46,1.51-.44,3.15.25,4.74a2.79,2.79,0,0,1-.76,2.88c0,1.27-1.14,2.06-1.6,3.14l-1.5.29c-.78.8.68,1.76-.12,2.24l3.29.06-.36-.35a4.84,4.84,0,0,1,.44-4.13c.5-1.06.61-2.31,1.55-3.21.2-.07.58-.45.76,0a6.26,6.26,0,0,1-.49,3c.93,1.34.82,3.09.91,4.76,2.88-.18,5.71-.24,8.54-.21l-.25-.54A41.56,41.56,0,0,0,150,83.85c-.6,0-1,.53-1.74.34a.56.56,0,0,1-.35-.58c-1.17-1.1-1.9-2.56-3.21-3.56-1.49.14-2.17-1.58-3.5-1.75-1.2-.5-.39-2.42-2.12-1.9a2.84,2.84,0,0,1-1.83-2,4.81,4.81,0,0,0-1.66-4.15c-1.06-.38-1.49,1-2.55.78-.58-.28-.32-1-.5-1.54s-.7-.75-.61-1.34c1.37-1.81-1.66-1.78-1-3.56-.18-1.29-1.49-1.79-2.17-2.8a47.27,47.27,0,0,0-14.16-4.07c-1.26-.16-2.43.1-3.51-.49l.3.55C111.37,60.56,111.54,63.44,111.26,66Z"/><path class="cls-2" d="M108,80.7c-4.72.61-9,2.22-12.48,5.86h.64c.69.71,1.85.55,2.36,1.49.26.53-.5.47-.46.9.14.12.35.15.46.36.56.2.44-.32.64-.56.74-.72.85.71,1.55.71a1.07,1.07,0,0,1,1.55.2c.46-.42,1.47,0,1.61-.79.91-1,.41-2.46,1.75-3.07.46.26,0,.7.15,1.12.9.38,1.93-.77,2.65.14A17.94,17.94,0,0,1,108,80.7"/><path class="cls-11" d="M108,80.7c-4.72.61-9,2.22-12.48,5.86h.64c.69.71,1.85.55,2.36,1.49.26.53-.5.47-.46.9.14.12.35.15.46.36.56.2.44-.32.64-.56.74-.72.85.71,1.55.71a1.07,1.07,0,0,1,1.55.2c.46-.42,1.47,0,1.61-.79.91-1,.41-2.46,1.75-3.07.46.26,0,.7.15,1.12.9.38,1.93-.77,2.65.14A17.94,17.94,0,0,1,108,80.7Z"/><path class="cls-2" d="M63.3,100l-.22-1.13a47.46,47.46,0,0,1,8.79-25c1.31-1.49,2.28-3.37,3.9-4.47-1.89-1.78-3.88-3.86-5.86-5.82l-.21-.79c-8.32,9.27-13.48,19.83-15,31.89-.33,1.75-.12,3.56-.48,5.34a59.17,59.17,0,0,1,9,0"/><path class="cls-11" d="M63.3,100l-.22-1.13a47.46,47.46,0,0,1,8.79-25c1.31-1.49,2.28-3.37,3.9-4.47-1.89-1.78-3.88-3.86-5.86-5.82l-.21-.79c-8.32,9.27-13.48,19.83-15,31.89-.33,1.75-.12,3.56-.48,5.34A59.17,59.17,0,0,1,63.3,100Z"/><path class="cls-2" d="M78,67.14l.15-.4A46.41,46.41,0,0,1,108,54.18l-.29-.69-.08-7,.24-.82A56.82,56.82,0,0,0,76.48,56.79c-1.79,1.22-3.36,3.1-5.17,4.14h.25A49.28,49.28,0,0,1,78,67.14"/><path class="cls-11" d="M78,67.14l.15-.4A46.41,46.41,0,0,1,108,54.18l-.29-.69-.08-7,.24-.82A56.82,56.82,0,0,0,76.48,56.79c-1.79,1.22-3.36,3.1-5.17,4.14h.25A49.28,49.28,0,0,1,78,67.14Z"/><path class="cls-2" d="M107.62,69.14c-7.43.52-13.86,3.61-19.49,8.25,2.21,1.55,4.2,4,6.21,5.82.16-.21.3-.41.46-.65A26.87,26.87,0,0,1,103.69,78c1.46-.15,2.91-.85,4.43-.49a38.82,38.82,0,0,1,0-8.62Z"/><path class="cls-11" d="M107.62,69.14c-7.43.52-13.86,3.61-19.49,8.25,2.21,1.55,4.2,4,6.21,5.82.16-.21.3-.41.46-.65A26.87,26.87,0,0,1,103.69,78c1.46-.15,2.91-.85,4.43-.49a38.82,38.82,0,0,1,0-8.62Z"/></g></g></svg>